<?xml version="1.0" encoding="UTF-8" standalone="no"?>
<!DOCTYPE svg PUBLIC "-//W3C//DTD SVG 1.1//EN" "http://www.w3.org/Graphics/SVG/1.1/DTD/svg11.dtd">
<svg width="100%" height="100%" viewBox="0 0 1869 648" version="1.1" xmlns="http://www.w3.org/2000/svg" xmlns:xlink="http://www.w3.org/1999/xlink" xml:space="preserve" xmlns:serif="http://www.serif.com/" style="fill-rule:evenodd;clip-rule:evenodd;stroke-linejoin:round;stroke-miterlimit:2;">
    <g transform="matrix(0.644207,0,0,0.644207,-664.619,-1493.98)">
        <path d="M1692.17,2875.47C1692.17,2933.87 1654.97,2984.47 1580.57,3027.27C1506.17,3070.07 1388.17,3099.87 1226.57,3116.67C1220.97,3112.67 1212.17,3103.07 1200.17,3087.87C1188.17,3072.67 1177.77,3057.87 1168.97,3043.47C1145.77,3005.07 1128.57,2960.27 1117.37,2909.07L1230.17,2925.87C1266.97,2929.87 1299.37,2931.87 1327.37,2931.87C1416.17,2931.87 1460.57,2912.27 1460.57,2873.07C1351.77,2863.47 1274.57,2848.47 1228.97,2828.07C1183.37,2807.67 1160.57,2771.47 1160.57,2719.47C1160.57,2643.47 1205.77,2582.67 1296.17,2537.07C1386.57,2491.47 1508.97,2468.67 1663.37,2468.67L1700.57,2724.27C1617.37,2700.27 1503.77,2686.27 1359.77,2682.27C1376.57,2706.27 1404.57,2725.07 1443.77,2738.67C1482.97,2752.27 1520.37,2761.47 1555.97,2766.27C1591.57,2771.07 1623.17,2782.27 1650.77,2799.87C1678.37,2817.47 1692.17,2842.67 1692.17,2875.47Z" style="fill:rgb(0,0,0);fill-rule:nonzero;"/>
        <path d="M1798.97,2430.27C1842.97,2447.07 1884.57,2460.07 1923.77,2469.27C1962.97,2478.47 1990.97,2483.47 2007.77,2484.27L2032.97,2485.47C2027.37,2584.67 2020.17,2667.67 2011.37,2734.47C2002.57,2801.27 1989.37,2865.27 1971.77,2926.47C1954.17,2987.67 1932.17,3036.27 1905.77,3072.27C1847.37,3148.27 1762.57,3189.47 1651.37,3195.87C1655.37,3191.87 1660.77,3185.67 1667.57,3177.27C1674.37,3168.87 1686.17,3145.47 1702.97,3107.07C1719.77,3068.67 1734.57,3023.67 1747.37,2972.07C1760.17,2920.47 1771.97,2846.67 1782.77,2750.67C1793.57,2654.67 1798.97,2547.87 1798.97,2430.27Z" style="fill:rgb(0,0,0);fill-rule:nonzero;"/>
        <path d="M2115.77,2484.27C2196.57,2507.47 2290.57,2519.07 2397.77,2519.07C2470.57,2519.07 2538.97,2514.67 2602.97,2505.87C2576.57,2549.87 2560.57,2623.87 2554.97,2727.87L2406.17,2732.67C2382.97,2859.07 2367.37,2989.07 2359.37,3122.67C2268.97,3109.87 2203.37,3093.87 2162.57,3074.67L2140.97,3063.87L2227.37,2737.47L2043.77,2742.27C2063.77,2717.47 2079.77,2683.67 2091.77,2640.87C2103.77,2598.07 2110.57,2561.07 2112.17,2529.87L2115.77,2484.27Z" style="fill:rgb(0,0,0);fill-rule:nonzero;"/>
        <path d="M3078.17,3084.27C2995.77,3084.27 2944.17,3056.67 2923.37,3001.47C2898.57,3027.07 2864.77,3046.67 2821.97,3060.27C2779.17,3073.87 2740.57,3080.67 2706.17,3080.67C2648.57,3080.67 2607.37,3078.27 2582.57,3073.47L2569.37,3071.07C2568.57,3060.67 2568.17,3049.67 2568.17,3038.07C2568.17,3026.47 2568.37,3011.47 2568.77,2993.07C2569.17,2974.67 2576.17,2921.47 2589.77,2833.47C2603.37,2745.47 2623.77,2655.47 2650.97,2563.47C2684.57,2546.67 2728.57,2530.67 2782.97,2515.47C2837.37,2500.27 2885.77,2492.27 2928.17,2491.47C2919.37,2506.67 2908.17,2527.87 2894.57,2555.07C2880.97,2582.27 2861.17,2635.07 2835.17,2713.47C2809.17,2791.87 2792.57,2866.67 2785.37,2937.87L2907.77,2894.67C2908.57,2827.47 2914.17,2766.47 2924.57,2711.67C2934.97,2656.87 2944.97,2619.07 2954.57,2598.27L2970.17,2567.07C3030.97,2591.07 3105.77,2603.07 3194.57,2603.07C3159.37,2699.07 3134.57,2784.47 3120.17,2859.27C3105.77,2934.07 3098.57,2980.87 3098.57,2999.67L3098.57,3033.87L3102.17,3081.87C3095.77,3083.47 3087.77,3084.27 3078.17,3084.27Z" style="fill:rgb(0,0,0);fill-rule:nonzero;"/>
        <path d="M3384.17,3108.27C3287.37,3069.87 3221.77,3021.07 3187.37,2961.87C3187.37,2873.87 3213.37,2777.87 3265.37,2673.87C3317.37,2569.87 3375.77,2501.07 3440.57,2467.47C3474.97,2467.47 3506.97,2469.47 3536.57,2473.47C3635.77,2468.67 3716.57,2458.67 3778.97,2443.47L3812.57,2436.27C3780.57,2541.87 3754.97,2654.27 3735.77,2773.47C3702.97,2759.07 3668.17,2738.67 3631.37,2712.27C3594.57,2685.87 3564.57,2659.47 3541.37,2633.07C3474.17,2728.27 3434.17,2831.47 3421.37,2942.67L3579.77,2900.67C3581.37,2871.87 3585.37,2842.27 3591.77,2811.87C3646.97,2827.07 3713.37,2834.67 3790.97,2834.67C3770.17,2879.47 3738.97,2965.47 3697.37,3092.67L3675.77,3156.27C3638.97,3142.67 3611.37,3103.87 3592.97,3039.87C3535.37,3071.07 3465.77,3093.87 3384.17,3108.27Z" style="fill:rgb(0,0,0);fill-rule:nonzero;"/>
    </g>
</svg>
