<?xml version="1.0" standalone="no"?>
<!DOCTYPE svg PUBLIC "-//W3C//DTD SVG 1.1//EN" "http://www.w3.org/Graphics/SVG/1.1/DTD/svg11.dtd">
<svg width="100%" height="100%" viewBox="0 0 2481 2481" version="1.1" xmlns="http://www.w3.org/2000/svg" xmlns:xlink="http://www.w3.org/1999/xlink" xml:space="preserve" style="fill-rule:evenodd;clip-rule:evenodd;stroke-miterlimit:1.41421;">
    <g id="Rocket" transform="matrix(3.94401,0,0,3.94401,-324.443,141.911)">
        <g transform="matrix(0.845768,0,0,0.845768,92.2275,-12.8563)">
            <path d="M360,30.436C542.013,30.436 689.564,177.987 689.564,360C689.564,542.014 542.013,689.565 360,689.565C177.986,689.565 30.435,542.014 30.435,360C30.435,177.987 177.986,30.436 360,30.436Z" style="fill:rgb(255,166,0);"/>
        </g>
        <g transform="matrix(0.845768,0,0,0.845768,92.2275,-12.8563)">
            <path d="M281.923,474.938C295.762,485.375 269.874,543.038 224.101,603.732C178.328,664.426 150.461,673.578 116.163,694.731C128.677,653.813 128.212,626.63 173.985,565.936C219.758,505.242 268.083,464.501 281.923,474.938Z" style="fill:rgb(255,194,0);"/>
        </g>
        <g transform="matrix(0.845768,0,0,0.845768,92.2275,-12.8563)">
            <path d="M556.898,110.327C495.111,113.8 409.568,156.648 342.223,245.946C320.178,275.178 300.366,307.376 285.725,337.977C254.565,345.502 208.154,353.588 190.967,361.169C154.581,420.809 157.309,481.727 149.081,535.862C184.26,483.395 204.256,461.469 260.523,434.089C262.56,452.429 269.357,466.765 281.749,475.168C293.235,484.773 308.887,487.367 327.081,484.284C316.223,545.91 300.637,571.163 259.863,619.409C309.651,596.618 368.972,582.494 416.311,531.115C418.876,512.506 413.892,465.66 412.561,433.632C437.96,411.144 463.471,383.244 485.516,354.012C552.861,264.714 570.544,170.688 556.898,110.327ZM495.39,191.886C500.413,195.674 501.415,202.818 497.626,207.842C493.837,212.865 486.693,213.867 481.67,210.078C476.646,206.289 475.645,199.145 479.433,194.122C483.222,189.098 490.366,188.097 495.39,191.886Z" style="fill:white;"/>
            <clipPath id="_clip1">
                <path d="M556.898,110.327C495.111,113.8 409.568,156.648 342.223,245.946C320.178,275.178 300.366,307.376 285.725,337.977C254.565,345.502 208.154,353.588 190.967,361.169C154.581,420.809 157.309,481.727 149.081,535.862C184.26,483.395 204.256,461.469 260.523,434.089C262.56,452.429 269.357,466.765 281.749,475.168C293.235,484.773 308.887,487.367 327.081,484.284C316.223,545.91 300.637,571.163 259.863,619.409C309.651,596.618 368.972,582.494 416.311,531.115C418.876,512.506 413.892,465.66 412.561,433.632C437.96,411.144 463.471,383.244 485.516,354.012C552.861,264.714 570.544,170.688 556.898,110.327ZM495.39,191.886C500.413,195.674 501.415,202.818 497.626,207.842C493.837,212.865 486.693,213.867 481.67,210.078C476.646,206.289 475.645,199.145 479.433,194.122C483.222,189.098 490.366,188.097 495.39,191.886Z"/>
            </clipPath>
            <g clip-path="url(#_clip1)">
                <path d="M285.075,300.926L324.048,362.183L299.71,411.236L337.783,440.002L378.321,403.189L447.895,423.945" style="fill:none;stroke-width:2.25px;stroke:rgb(255,166,0);"/>
            </g>
        </g>
    </g>
</svg>
